<?xml version="1.0" encoding="UTF-8"?>
<svg xmlns="http://www.w3.org/2000/svg" viewBox="0 0 128 128" role="img" aria-labelledby="title">
  <title id="title">铁巢本体俯视图标</title>
  <defs>
    <linearGradient id="nest-metal" x1="0" y1="0" x2="1" y2="1">
      <stop offset="0" stop-color="#9bdddf"/>
      <stop offset="1" stop-color="#5aa9bd"/>
    </linearGradient>
  </defs>
  <path d="M64 8c-28.7 0-52 22.1-52 49.4 0 21.9 15 40.5 36.4 47L64 128l15.6-23.6c21.4-6.5 36.4-25.1 36.4-47C116 30.1 92.7 8 64 8Z" fill="url(#nest-metal)" stroke="#315f6d" stroke-width="3"/>
  <g transform="rotate(-34 64 60)" stroke="#315f6d" stroke-linejoin="round">
    <rect x="42" y="34" width="44" height="54" rx="3" fill="#79c8ce" stroke-width="2.5"/>
    <rect x="49" y="40" width="30" height="31" rx="2" fill="#70b9c7" stroke-width="2"/>
    <path d="M53 41V2h7v39M68 41V-3h7v44" fill="#8ed5da" stroke-width="2"/>
    <path d="M45 47 22 35l-7 10 26 17M83 47l23-12 7 10-26 17M45 75 22 88l-7-10 26-18M83 75l23 13 7-10-26-18" fill="#68aebe" stroke-width="2"/>
    <rect x="36" y="52" width="9" height="20" fill="#86d0d4" stroke-width="1.7"/>
    <rect x="83" y="52" width="9" height="20" fill="#86d0d4" stroke-width="1.7"/>
    <circle cx="64" cy="57" r="4" fill="#315f6d" stroke="none"/>
  </g>
</svg>
