<?xml version="1.0" encoding="UTF-8"?>
<svg xmlns="http://www.w3.org/2000/svg" viewBox="0 0 64 64" role="img" aria-labelledby="title">
  <title id="title">红色自定义标记 5</title>
  <path d="M32 7c-12.7 0-23 9.5-23 21.3 0 9.5 6.6 17.5 15.8 20.3L32 62l7.2-13.4C48.4 45.8 55 37.8 55 28.3 55 16.5 44.7 7 32 7Z" fill="#dc211f" stroke="#761516" stroke-width="1.8"/>
    <path d="M13 18c4-8 11-9 17-5 5-5 12-3 16 3-6-2-9 0-11 3 7-1 12 1 16 5-8-3-13-1-17 2-5-5-12-7-21-8Z" fill="#8f1515" opacity=".92"/>
    <text x="32" y="36" text-anchor="middle" font-family="Georgia, 'Times New Roman', serif" font-size="22" font-weight="700" fill="#111">5</text>
</svg>
